<?xml version="1.0" encoding="UTF-8"?>
<svg width="700pt" height="700pt" version="1.1" viewBox="0 0 700 700" xmlns="http://www.w3.org/2000/svg">
 <g>
  <path d="m280 192.5c0 38.66-31.34 70-70 70s-70-31.34-70-70 31.34-70 70-70 70 31.34 70 70"/>
  <path d="m245 280h-70c-23.207 0-45.461 9.2188-61.871 25.629s-25.629 38.664-25.629 61.871v70c0 4.6406 1.8438 9.0938 5.125 12.375s7.7344 5.125 12.375 5.125h210c4.6406 0 9.0938-1.8438 12.375-5.125s5.125-7.7344 5.125-12.375v-70c0-23.207-9.2188-45.461-25.629-61.871s-38.664-25.629-61.871-25.629z"/>
  <path d="m595 262.5h-210c-6.2539 0-12.031-3.3359-15.156-8.75s-3.125-12.086 0-17.5 8.9023-8.75 15.156-8.75h210c6.2539 0 12.031 3.3359 15.156 8.75s3.125 12.086 0 17.5-8.9023 8.75-15.156 8.75z"/>
  <path d="m595 332.5h-210c-6.2539 0-12.031-3.3359-15.156-8.75s-3.125-12.086 0-17.5 8.9023-8.75 15.156-8.75h210c6.2539 0 12.031 3.3359 15.156 8.75s3.125 12.086 0 17.5-8.9023 8.75-15.156 8.75z"/>
  <path d="m490 402.5h-105c-6.2539 0-12.031-3.3359-15.156-8.75s-3.125-12.086 0-17.5 8.9023-8.75 15.156-8.75h105c6.2539 0 12.031 3.3359 15.156 8.75s3.125 12.086 0 17.5-8.9023 8.75-15.156 8.75z"/>
 </g>
</svg>
