<?xml version="1.0" encoding="utf-8"?>
<!-- Svg Vector Icons : http://www.onlinewebfonts.com/icon -->
<!DOCTYPE svg PUBLIC "-//W3C//DTD SVG 1.1//EN" "http://www.w3.org/Graphics/SVG/1.1/DTD/svg11.dtd">
<svg version="1.1" xmlns="http://www.w3.org/2000/svg" xmlns:xlink="http://www.w3.org/1999/xlink" x="0px" y="0px" viewBox="0 0 1000 1000" enable-background="new 0 0 1000 1000" xml:space="preserve">
<metadata> Svg Vector Icons : http://www.onlinewebfonts.com/icon </metadata>
<g><path d="M522.1,522.5c25,0,173.9,3.8,262.8,97.7c11.8,12.4,31.4,13,43.8,1.2c12.4-11.8,13-31.4,1.2-43.8c-50-52.9-113.8-81.9-170.8-97.9c69-46,114.6-124.5,114.6-213.5C773.8,125,658.8,10,517.5,10c-141.3,0-256.3,115-256.3,256.3c0,90.1,46.8,169.5,117.3,215.2c-97.6,25.3-176.6,72-235.9,139.6C89.8,681.3,53.2,759,36.8,845.9c-12.4,65.5-9.1,113.3-9,115.3C29,977.5,42.6,990,58.7,990c0.7,0,1.5,0,2.3-0.1c17.1-1.2,29.9-16.1,28.7-33.1c-0.1-1.7-10.8-169,99.5-294.8c73.5-83.8,184.4-130.7,329.5-139.4C519.8,522.6,521,522.5,522.1,522.5z M323.2,266.3C323.2,159.1,410.3,72,517.5,72c107.1,0,194.3,87.2,194.3,194.3c0,105.4-84.3,191.4-189,194.2c-2.6,0-4.5,0-5.6,0.1C410.2,460.4,323.2,373.3,323.2,266.3z"/><path d="M615.3,768.4c0,17.1,13.9,31,31,31h295.4c17.1,0,31-13.9,31-31c0-17.1-13.9-31-31-31H646.3C629.2,737.4,615.3,751.2,615.3,768.4z"/><path d="M941.7,928H646.3c-17.1,0-31,13.9-31,31c0,17.1,13.9,31,31,31h295.4c17.1,0,31-13.9,31-31C972.7,941.9,958.8,928,941.7,928z"/></g>
</svg>